<svg width="14" height="15" viewBox="0 0 14 15" fill="none" xmlns="http://www.w3.org/2000/svg">
<g clip-path="url(#clip0_6764_1195)">
<path d="M7 14.5C8.85652 14.5 10.637 13.7625 11.9497 12.4497C13.2625 11.137 14 9.35652 14 7.5C14 5.64348 13.2625 3.86301 11.9497 2.55025C10.637 1.2375 8.85652 0.5 7 0.5C5.14348 0.5 3.36301 1.2375 2.05025 2.55025C0.737498 3.86301 0 5.64348 0 7.5C0 9.35652 0.737498 11.137 2.05025 12.4497C3.36301 13.7625 5.14348 14.5 7 14.5ZM6.34375 9.90625V8.15625H4.59375C4.23008 8.15625 3.9375 7.86367 3.9375 7.5C3.9375 7.13633 4.23008 6.84375 4.59375 6.84375H6.34375V5.09375C6.34375 4.73008 6.63633 4.4375 7 4.4375C7.36367 4.4375 7.65625 4.73008 7.65625 5.09375V6.84375H9.40625C9.76992 6.84375 10.0625 7.13633 10.0625 7.5C10.0625 7.86367 9.76992 8.15625 9.40625 8.15625H7.65625V9.90625C7.65625 10.2699 7.36367 10.5625 7 10.5625C6.63633 10.5625 6.34375 10.2699 6.34375 9.90625Z" fill="#0D61A7"/>
</g>
<defs>
<clipPath id="clip0_6764_1195">
<rect width="14" height="14" fill="white" transform="translate(0 0.5)"/>
</clipPath>
</defs>
</svg>
