<svg width="16" height="15" viewBox="0 0 16 15" fill="none" xmlns="http://www.w3.org/2000/svg">
<path d="M7.98848 6.75648L13.1053 0.808341C13.4589 0.39722 14.0308 0.39722 14.3807 0.808341L15.231 1.79678C15.5847 2.2079 15.5847 2.8727 15.231 3.27944L11.6079 7.5L15.2348 11.7162C15.5884 12.1273 15.5884 12.7921 15.2348 13.1988L14.3845 14.1917C14.0308 14.6028 13.4589 14.6028 13.109 14.1917L7.99224 8.24352C7.63482 7.8324 7.63482 7.1676 7.98848 6.75648ZM0.764777 8.24352L5.88157 14.1917C6.23523 14.6028 6.8071 14.6028 7.157 14.1917L8.00729 13.2032C8.36095 12.7921 8.36095 12.1273 8.00729 11.7206L4.38415 7.5L8.01105 3.28382C8.36471 2.8727 8.36471 2.2079 8.01105 1.80116L7.16076 0.808341C6.8071 0.39722 6.23523 0.39722 5.88533 0.808341L0.768539 6.75648C0.411116 7.1676 0.411117 7.8324 0.764777 8.24352Z" fill="#F89521"/>
</svg>
